<?xml version="1.0" standalone="no"?>
<!DOCTYPE svg PUBLIC "-//W3C//DTD SVG 20010904//EN"
 "http://www.w3.org/TR/2001/REC-SVG-20010904/DTD/svg10.dtd">
<svg version="1.0" xmlns="http://www.w3.org/2000/svg"
 width="1600.000000pt" height="1105.000000pt" viewBox="0 0 1600.000000 1105.000000"
 preserveAspectRatio="xMidYMid meet">

<g transform="translate(0.000000,1105.000000) scale(0.100000,-0.100000)"
fill="#000000" stroke="none">
<path d="M0 5525 l0 -5525 8000 0 8000 0 0 5525 0 5525 -8000 0 -8000 0 0
-5525z m6915 4950 c99 -8 257 -19 350 -25 264 -17 381 -29 500 -50 61 -11 155
-26 210 -34 55 -8 154 -24 220 -35 66 -11 219 -33 340 -50 121 -17 299 -46
395 -65 96 -19 272 -49 390 -66 118 -17 222 -33 230 -35 8 -3 112 -21 230 -40
248 -42 310 -56 544 -130 211 -66 294 -100 417 -170 111 -63 405 -273 709
-506 47 -36 146 -112 220 -169 197 -151 237 -184 319 -263 85 -84 106 -119
122 -213 7 -38 17 -74 23 -80 6 -6 56 -26 111 -44 129 -43 599 -248 870 -380
175 -86 429 -241 605 -371 74 -55 167 -121 207 -147 39 -26 113 -86 165 -133
51 -48 114 -104 140 -125 26 -22 118 -111 205 -199 162 -163 252 -281 276
-359 8 -27 12 -111 12 -246 0 -189 -2 -210 -23 -274 -26 -75 -25 -99 8 -191
l22 -59 3 -1251 c1 -687 0 -1581 -4 -1985 l-6 -735 -27 -52 c-32 -59 -75 -96
-133 -112 -54 -15 -13493 -16 -13546 -1 -58 16 -100 51 -133 110 l-31 55 0
1825 c0 1937 -1 1885 46 2033 10 32 39 106 65 164 39 90 47 121 55 202 10 111
15 131 69 266 22 55 60 152 84 215 97 251 174 428 212 487 21 34 87 128 145
210 59 81 127 185 152 231 89 161 189 312 310 470 67 88 154 204 192 258 46
65 137 165 268 296 108 108 197 202 197 209 0 9 -32 10 -137 3 -76 -5 -187 -9
-248 -9 -107 0 -112 1 -175 35 -57 32 -69 43 -95 94 -39 78 -38 144 2 218 30
56 98 110 161 128 84 25 275 39 512 40 135 0 255 3 267 6 17 5 27 22 43 77 55
181 130 267 325 372 39 21 88 50 110 63 57 36 235 151 269 175 47 32 278 145
375 182 91 35 471 145 591 172 36 8 106 18 155 23 146 14 1898 2 2110 -15z"/>
<path d="M4895 10284 c-136 -14 -440 -86 -665 -157 -176 -56 -333 -138 -597
-313 -111 -74 -220 -141 -241 -148 -87 -31 -165 -104 -187 -176 -4 -14 -11
-83 -14 -155 l-6 -130 -430 -6 c-236 -4 -450 -10 -475 -14 -61 -9 -100 -25
-100 -40 0 -10 101 -11 489 -7 342 3 490 2 495 -6 10 -17 -77 -114 -299 -333
-113 -112 -205 -207 -205 -211 0 -12 161 128 195 170 37 45 179 189 297 300
l87 82 100 0 c158 0 741 -19 922 -30 132 -9 194 -18 305 -46 76 -19 173 -39
214 -44 41 -5 104 -14 140 -20 155 -25 243 -31 550 -36 212 -4 356 -11 415
-21 131 -21 238 -32 440 -43 225 -13 248 -14 365 -28 52 -7 174 -16 270 -21
213 -12 423 -36 550 -62 52 -10 109 -19 125 -19 17 0 46 -5 65 -10 36 -11 142
-27 345 -55 66 -9 154 -23 195 -32 41 -8 91 -17 110 -18 19 -2 85 -8 145 -15
61 -6 151 -15 200 -20 168 -15 443 -54 640 -90 88 -16 237 -38 330 -49 94 -12
217 -28 275 -36 58 -8 179 -19 270 -24 104 -7 205 -19 275 -35 61 -13 146 -29
190 -35 191 -25 257 -32 375 -42 69 -5 163 -13 210 -19 47 -5 138 -9 204 -9
118 -1 118 -1 153 30 23 19 41 28 52 24 9 -4 45 -13 81 -21 268 -61 487 -139
755 -269 50 -24 146 -67 215 -95 162 -67 319 -148 422 -217 46 -30 119 -75
163 -100 45 -24 110 -69 145 -99 36 -30 99 -77 140 -104 137 -91 214 -150 292
-224 42 -41 112 -102 155 -137 133 -109 319 -312 343 -374 6 -14 10 -117 10
-231 0 -145 3 -204 11 -204 7 0 27 16 45 35 24 26 34 48 39 83 3 26 11 56 17
66 17 31 22 140 9 193 -21 80 -69 171 -134 246 -76 91 -208 223 -267 268 -25
19 -80 66 -122 106 -102 94 -199 171 -273 216 -33 20 -105 72 -160 116 -55 44
-134 99 -175 122 -41 23 -122 72 -180 108 -142 90 -131 85 -485 241 -71 32
-193 87 -271 123 -159 74 -325 129 -526 177 -103 24 -138 36 -138 48 0 8 20
38 44 67 25 28 53 69 63 89 16 34 16 40 2 64 -13 24 -182 165 -341 284 -35 27
-133 102 -218 167 -158 122 -523 387 -661 480 -96 64 -227 122 -394 173 -280
85 -353 101 -680 153 -88 14 -182 29 -210 34 -27 6 -84 15 -125 21 -112 17
-414 71 -422 76 -3 2 -147 24 -320 49 -172 25 -383 56 -468 69 -85 14 -189 29
-230 35 -41 5 -113 16 -160 25 -47 8 -193 22 -325 31 -132 8 -316 22 -410 30
-104 10 -326 17 -570 19 -220 2 -629 6 -910 9 -280 3 -528 3 -550 1z m1230
-73 c325 -5 640 -13 700 -19 61 -7 178 -16 260 -22 300 -19 428 -31 508 -46
45 -8 143 -23 217 -34 74 -11 160 -24 190 -30 51 -10 143 -23 495 -70 78 -10
193 -30 258 -44 64 -15 163 -33 219 -41 207 -30 376 -57 498 -81 69 -13 170
-31 225 -40 153 -24 214 -38 420 -99 199 -59 325 -108 411 -159 104 -64 515
-359 739 -532 61 -46 141 -105 179 -131 38 -26 90 -66 115 -90 l46 -42 -40 -1
c-35 0 -102 10 -255 39 -25 5 -58 7 -75 4 -16 -2 -100 7 -185 22 -161 28 -229
37 -390 55 -52 5 -189 23 -305 40 -115 16 -262 34 -325 40 -172 17 -421 39
-545 50 -60 5 -153 16 -205 24 -52 8 -165 22 -250 30 -261 27 -368 41 -700 91
-218 32 -243 35 -333 35 -50 0 -144 7 -207 15 -129 17 -295 36 -325 37 -11 0
-96 7 -190 15 -93 8 -228 18 -300 23 -71 5 -150 14 -175 20 -25 5 -106 12
-180 15 -74 4 -175 13 -225 22 -49 8 -198 19 -330 24 -132 4 -267 13 -300 19
-33 6 -87 12 -120 14 -33 2 -71 7 -85 11 -14 5 -34 8 -45 6 -11 -1 -67 5 -125
14 -58 9 -181 20 -275 25 -93 5 -224 14 -290 20 -66 6 -167 11 -225 11 -58 0
-121 5 -140 10 -19 4 -135 13 -257 19 -145 7 -238 16 -270 26 -50 16 -88 23
-269 49 -134 19 -247 53 -252 76 -2 12 17 29 58 54 34 21 118 75 186 121 203
137 395 224 634 288 30 8 100 28 155 44 259 78 396 92 805 86 157 -3 551 -9
875 -13z m-2724 -692 c35 -12 69 -26 76 -31 7 -5 21 -7 32 -3 22 7 272 -28
315 -45 31 -11 112 -19 281 -24 55 -2 143 -9 196 -15 54 -5 139 -11 190 -12
52 0 121 -5 154 -10 33 -5 137 -13 230 -19 94 -6 226 -18 295 -26 69 -8 168
-19 220 -24 122 -12 178 -18 268 -30 40 -6 148 -10 240 -10 92 0 183 -4 202
-9 19 -5 73 -12 120 -16 47 -3 103 -10 125 -15 22 -5 101 -11 175 -14 74 -3
162 -12 195 -20 33 -8 148 -20 255 -27 355 -21 444 -28 520 -38 214 -29 316
-40 430 -46 132 -6 180 -12 565 -68 132 -20 294 -41 360 -47 66 -6 161 -16
210 -20 50 -5 133 -16 185 -24 52 -9 119 -16 148 -16 51 0 230 -18 402 -41 47
-6 139 -15 205 -19 66 -5 165 -15 220 -23 141 -22 322 -45 445 -58 58 -6 143
-19 190 -29 47 -10 117 -21 155 -25 230 -20 548 -67 620 -90 22 -7 54 -16 70
-19 75 -17 115 -38 115 -62 0 -45 -95 -110 -131 -89 -6 4 -34 -17 -65 -50
l-53 -58 -93 6 c-51 3 -142 10 -203 16 -60 5 -195 17 -300 27 -124 10 -231 26
-310 45 -85 20 -178 33 -320 44 -110 9 -263 24 -340 35 -161 23 -282 37 -410
50 -49 5 -124 17 -165 28 -117 31 -388 69 -692 97 -265 24 -360 37 -513 69
-39 8 -115 19 -170 26 -99 11 -174 22 -390 60 -60 11 -168 27 -240 36 -71 9
-159 20 -195 25 -36 5 -146 13 -245 18 -99 5 -227 14 -284 21 -57 6 -168 13
-245 15 -165 4 -349 20 -367 30 -24 15 -246 32 -439 34 -328 2 -401 8 -740 57
-58 9 -161 29 -228 45 -170 40 -265 47 -822 59 -267 6 -499 13 -516 15 -45 8
-59 59 -57 204 2 145 6 149 124 110z"/>
<path d="M2637 8573 c-4 -3 -7 -11 -7 -17 0 -6 5 -5 12 2 6 6 9 14 7 17 -3 3
-9 2 -12 -2z"/>
<path d="M2534 8467 c-71 -73 -145 -165 -279 -351 -22 -30 -85 -115 -141 -188
-112 -147 -209 -303 -261 -418 l-35 -75 37 35 c20 19 62 80 93 135 135 240
168 295 234 384 38 52 93 121 123 154 30 33 55 65 55 71 0 16 114 164 194 251
38 42 67 78 64 80 -2 3 -40 -32 -84 -78z"/>
<path d="M3232 7662 c-27 -31 -68 -115 -145 -297 -30 -71 -92 -206 -137 -300
-45 -93 -104 -215 -130 -270 -126 -261 -176 -369 -222 -480 -52 -126 -116
-245 -131 -245 -5 0 -6 8 -3 17 15 37 7 655 -9 783 -17 138 -37 222 -52 227
-16 6 -73 -65 -73 -90 0 -12 6 -42 14 -67 27 -85 39 -216 44 -490 6 -349 -9
-566 -46 -660 -32 -81 -197 -388 -253 -470 -9 -14 -25 -41 -36 -60 -20 -36
-122 -211 -208 -358 -26 -45 -45 -85 -41 -89 11 -12 67 50 109 122 22 39 60
102 83 140 143 236 363 636 474 860 191 388 190 386 212 445 26 70 230 503
365 775 25 50 60 126 78 170 19 44 59 136 89 204 68 152 75 200 18 133z"/>
<path d="M1935 7496 c-15 -15 -49 -75 -77 -134 -28 -59 -86 -183 -130 -277
-44 -93 -201 -412 -349 -707 -148 -296 -279 -570 -291 -610 l-23 -73 -3 -1807
-2 -1808 20 0 c20 0 20 1 21 1728 0 950 4 1775 8 1834 l9 107 315 633 c450
904 551 1118 534 1135 -3 3 -18 -7 -32 -21z"/>
<path d="M4011 7409 c-20 -8 -23 -14 -18 -44 8 -49 -23 -159 -79 -285 -56
-125 -103 -265 -138 -415 -23 -99 -70 -275 -112 -425 -9 -30 -19 -89 -23 -130
-8 -79 -50 -206 -106 -325 -130 -272 -164 -355 -184 -445 -7 -30 -32 -104 -56
-165 -24 -60 -60 -152 -79 -203 -20 -51 -61 -143 -90 -205 -30 -61 -66 -146
-81 -187 -14 -41 -53 -136 -85 -210 -32 -74 -70 -171 -85 -215 -15 -44 -43
-111 -62 -150 -32 -62 -93 -233 -93 -258 0 -5 -19 -55 -41 -110 -62 -153 -105
-282 -155 -466 -82 -301 -124 -430 -165 -514 -147 -301 -237 -569 -198 -592
14 -9 46 21 52 48 2 12 26 90 52 172 47 149 74 216 185 455 73 160 72 156 120
342 82 320 151 534 225 702 13 29 28 78 34 109 6 31 37 114 69 184 33 71 67
153 77 183 21 65 50 136 98 241 20 41 45 109 57 150 13 41 48 124 80 184 32
61 86 182 121 270 34 88 71 172 81 187 10 14 18 30 18 36 0 28 82 247 142 382
38 85 81 184 95 220 14 36 33 83 43 105 10 22 25 81 35 130 22 117 95 417 104
430 4 6 15 35 25 65 10 30 25 72 34 93 12 31 13 43 4 58 -27 44 -15 99 57 246
38 78 80 170 92 205 12 35 23 64 24 66 1 1 29 -4 61 -12 32 -8 119 -17 193
-20 95 -4 139 -10 150 -20 17 -16 160 -20 1007 -32 378 -5 432 -4 443 10 30
35 109 40 666 38 607 -3 784 -9 832 -28 29 -13 121 -23 253 -28 25 -1 52 -6
60 -11 35 -23 114 -34 242 -35 95 0 151 -5 182 -15 25 -9 75 -15 113 -14 43 0
96 -8 143 -21 75 -22 134 -26 650 -46 139 -5 163 -9 140 -24 -12 -8 -10 -10 8
-10 15 0 26 -9 32 -26 14 -36 13 -44 -9 -44 -11 0 -26 -7 -35 -15 -11 -11 -26
-14 -55 -9 -28 4 -41 3 -41 -5 0 -6 -17 -11 -40 -11 -22 0 -40 5 -40 10 0 17
-68 11 -108 -9 -20 -10 -48 -21 -62 -24 -37 -9 -212 -11 -231 -3 -10 5 -31 -5
-58 -28 -44 -37 -55 -39 -239 -40 -57 0 -67 -3 -97 -32 -31 -29 -40 -31 -117
-36 -45 -2 -126 0 -178 4 -201 17 -310 20 -325 8 -8 -6 -18 -9 -22 -7 -5 3 -9
-4 -10 -16 -26 -359 -32 -679 -13 -776 5 -29 10 -74 10 -100 1 -35 3 -42 11
-29 10 18 15 18 122 2 24 -4 37 -2 37 5 0 9 5 9 20 1 14 -8 26 -8 40 0 17 9
20 8 20 -10 0 -11 7 -20 15 -20 10 0 17 -15 22 -42 5 -34 8 -38 14 -23 5 14 8
7 8 -25 0 -28 -2 -40 -8 -32 -5 9 -10 -3 -14 -34 -7 -64 -23 -74 -114 -71 -53
1 -76 -2 -82 -11 -7 -11 -10 -10 -15 3 -5 14 -9 15 -21 5 -13 -11 -18 -10 -29
6 -13 17 -15 16 -21 -18 l-7 -36 -541 -1 c-297 -1 -543 -3 -545 -6 -3 -3 44
-5 104 -6 60 0 118 -5 129 -10 16 -8 15 -8 -8 -4 -15 3 -87 0 -160 -6 -73 -6
-252 -12 -399 -13 -169 0 -269 -5 -270 -11 -4 -12 -42 -11 542 -18 267 -3 499
-8 515 -11 17 -2 75 -7 130 -11 127 -8 145 -12 155 -41 5 -12 17 -23 27 -24
337 -14 319 -9 323 -85 2 -18 4 -23 7 -13 4 14 8 16 24 7 11 -5 29 -7 39 -4
12 4 20 2 20 -5 0 -8 26 -10 83 -7 101 6 135 0 142 -24 4 -12 16 -19 31 -19
13 0 24 -5 24 -11 0 -5 -4 -7 -10 -4 -5 3 -10 2 -10 -4 0 -5 8 -15 18 -20 14
-9 12 -10 -14 -11 -29 0 -32 -3 -38 -40 -7 -44 -22 -53 -29 -17 -4 22 -4 22
-6 -2 -1 -16 -5 -21 -16 -17 -10 3 -15 -1 -15 -12 0 -10 -3 -13 -8 -6 -9 14
-85 27 -76 13 3 -6 -4 -7 -18 -4 -16 4 -29 1 -37 -9 -11 -13 -16 -13 -46 0
-19 8 -39 14 -45 14 -6 0 -9 -27 -9 -65 1 -36 6 -65 11 -65 6 0 8 -7 4 -15 -4
-11 2 -15 24 -15 22 0 28 4 24 15 -4 11 0 15 16 15 16 0 20 -4 16 -15 -4 -11
2 -15 24 -15 22 0 28 4 24 15 -4 10 0 15 15 15 12 0 21 -6 21 -15 0 -8 9 -15
20 -15 11 0 20 7 20 15 0 8 7 15 15 15 8 0 15 -7 15 -15 0 -10 11 -15 35 -15
31 0 35 -3 35 -25 0 -16 4 -23 13 -19 8 3 20 -2 27 -11 10 -12 16 -13 26 -4
10 8 14 8 14 0 0 -6 9 -11 20 -11 11 0 20 -7 20 -15 0 -8 7 -15 15 -15 9 0 15
-9 15 -24 0 -13 3 -31 6 -39 7 -19 -64 -49 -88 -36 -12 7 -18 4 -23 -11 -3
-11 -4 -23 -1 -28 2 -4 1 -14 -4 -21 -13 -22 -33 26 -26 63 3 17 1 38 -4 46
-7 10 -10 -14 -10 -77 0 -87 9 -116 24 -76 6 14 9 15 15 4 15 -23 5 -46 -18
-45 -11 0 -21 -5 -21 -11 0 -8 26 -15 73 -19 39 -3 111 -11 158 -17 79 -10 86
-13 97 -39 7 -15 10 -33 7 -41 -2 -8 -6 -35 -9 -61 -4 -56 -23 -51 182 -48
l132 2 0 -31 c0 -23 -5 -32 -22 -36 -32 -8 -114 -7 -170 0 -32 5 -48 3 -48 -4
0 -6 -7 -11 -15 -11 -8 0 -26 -5 -40 -12 -22 -10 -25 -17 -25 -65 0 -51 1 -53
28 -54 19 -1 21 -3 8 -6 -13 -4 -15 -7 -7 -12 7 -4 13 -20 15 -35 3 -32 20
-53 30 -37 4 6 40 11 87 11 74 0 79 -1 79 -21 0 -18 2 -20 15 -9 13 11 13 15
3 21 -9 6 -5 9 11 9 13 0 21 -3 18 -7 -4 -3 -2 -12 4 -20 12 -14 7 -72 -12
-120 -8 -22 -12 -25 -20 -13 -8 11 -12 12 -16 3 -6 -17 -173 -18 -173 -2 0 8
-4 8 -15 -1 -8 -6 -19 -9 -25 -5 -7 4 -10 -28 -10 -97 1 -93 2 -100 14 -73
l13 30 6 -27 c7 -26 8 -27 105 -30 53 -2 102 1 109 5 7 5 16 0 24 -15 7 -13
22 -32 34 -44 16 -14 27 -43 35 -93 13 -70 26 -94 39 -73 6 10 75 16 152 13
27 -1 38 -6 42 -20 4 -16 18 -20 83 -27 181 -19 307 -7 349 31 25 24 32 25
155 25 158 0 160 -2 160 -125 -1 -98 -12 -152 -39 -178 -17 -18 -35 -21 -136
-23 -102 -3 -120 -7 -148 -26 -29 -21 -45 -23 -197 -27 -243 -6 -246 -6 -362
-3 -95 2 -111 5 -129 23 -19 19 -38 23 -168 29 -80 5 -158 13 -173 19 -15 6
-90 13 -166 16 -76 2 -160 9 -188 14 -45 9 -1077 11 -1466 3 -139 -2 -168 -5
-168 -17 0 -13 -26 -15 -156 -15 -122 0 -159 -3 -170 -14 -12 -13 -12 -16 4
-28 10 -7 21 -21 25 -30 4 -11 17 -18 30 -18 14 0 30 -7 37 -15 7 -8 18 -15
26 -15 7 0 20 -7 28 -16 15 -14 16 -14 16 0 0 21 9 20 34 -4 25 -24 86 -78
115 -102 12 -10 26 -18 31 -18 6 0 10 -4 10 -10 0 -5 6 -10 13 -10 7 0 20 -8
28 -17 24 -27 51 -46 101 -71 25 -13 54 -30 65 -38 10 -8 68 -46 128 -86 61
-40 112 -76 113 -80 2 -5 8 -8 14 -8 5 0 29 -13 53 -30 24 -16 46 -30 50 -30
3 0 21 -11 39 -25 18 -14 40 -25 48 -25 8 0 20 -10 27 -23 6 -12 36 -38 66
-57 30 -19 54 -41 55 -47 0 -25 19 -12 25 17 8 34 32 51 80 53 18 1 31 5 29 9
-2 3 24 9 59 13 34 4 97 16 140 27 42 10 90 21 105 23 15 2 27 4 27 5 0 1 38
10 85 20 79 17 219 49 315 72 22 5 65 13 95 19 165 29 279 51 315 60 22 5 72
14 110 19 39 5 113 19 165 30 52 12 118 25 145 30 205 34 437 75 590 105 99
19 243 46 320 60 77 14 160 30 185 35 25 5 90 17 145 25 119 19 96 14 575 111
96 19 225 44 285 54 61 10 162 28 225 39 63 12 149 26 190 32 41 6 77 12 80
14 4 2 60 11 126 20 65 9 164 27 219 40 172 41 235 53 405 80 221 35 543 95
553 104 8 8 -100 469 -115 487 -5 7 -24 15 -43 18 -35 7 -52 24 -130 129 -79
106 -90 154 -63 267 9 39 13 151 13 396 0 382 -5 372 71 142 25 -79 78 -235
116 -348 112 -332 152 -465 208 -695 92 -374 129 -545 151 -685 11 -74 38
-245 59 -380 22 -135 42 -267 45 -295 4 -27 20 -115 35 -195 16 -80 32 -175
35 -212 4 -37 13 -72 20 -78 15 -13 72 -17 82 -6 11 11 -16 231 -43 351 -24
106 -48 252 -99 610 -36 248 -53 345 -86 490 -16 72 -41 181 -55 244 -14 63
-48 196 -76 295 -28 100 -61 226 -74 281 -12 55 -42 145 -64 200 -23 55 -53
138 -66 185 -14 47 -63 202 -110 345 -120 366 -184 637 -234 1000 -11 83 -34
220 -50 305 -16 85 -41 224 -54 309 -46 274 -60 307 -146 321 -213 35 -258 39
-447 40 -190 0 -206 1 -255 23 -35 16 -85 26 -148 32 -106 9 -115 10 -355 25
-93 6 -258 17 -365 26 -114 9 -302 15 -453 14 -142 0 -291 4 -330 9 -40 6
-120 11 -179 12 -110 1 -197 15 -211 33 -4 6 -5 22 -3 36 4 24 2 26 -40 28
-25 1 -43 -2 -40 -7 8 -12 -17 -61 -31 -61 -7 0 -13 7 -13 15 0 9 -9 15 -22
15 -13 0 -28 4 -35 8 -7 4 -52 4 -100 1 -147 -12 -356 -12 -398 -1 -22 6 -92
12 -155 13 -68 1 -129 7 -150 14 -22 9 -94 15 -196 17 -140 3 -165 6 -190 23
-32 22 -17 21 -709 45 -393 14 -753 8 -1375 -20 -113 -6 -429 -8 -703 -6 -482
4 -499 5 -533 25 -30 18 -52 21 -152 21 -64 0 -155 7 -202 15 -96 17 -154 18
-189 4z m5193 -198 c-9 -10 -26 18 -18 30 5 9 9 8 14 -7 4 -10 6 -21 4 -23z
m881 -1452 c154 8 389 3 393 -7 3 -9 9 -9 23 -2 23 13 59 -3 59 -25 0 -8 4
-15 10 -15 15 0 32 -72 19 -85 -5 -5 -32 -10 -59 -10 -28 0 -50 -3 -50 -7 0
-3 -36 -4 -80 -1 -64 5 -80 3 -81 -8 0 -8 -4 -4 -9 7 -5 12 -22 28 -39 35 -17
8 -31 18 -31 22 0 5 -12 7 -27 5 -14 -2 -28 2 -30 9 -3 7 9 13 29 16 29 3 28
4 -9 5 -35 2 -43 -1 -43 -15 0 -15 -2 -16 -9 -3 -7 10 -29 14 -81 13 -66 -1
-72 1 -82 22 -17 37 -3 59 30 50 15 -4 45 -7 67 -6z m756 -419 c28 0 39 -4 39
-15 0 -9 9 -15 21 -15 15 0 19 -4 15 -16 -3 -9 -6 -22 -6 -30 0 -8 -7 -14 -15
-14 -8 0 -15 -4 -15 -9 0 -5 -52 -9 -116 -10 -64 -1 -120 -4 -125 -7 -5 -3
-12 3 -16 12 -4 10 -2 19 5 22 19 6 14 32 -5 32 -17 1 -17 1 0 14 9 7 17 18
17 24 0 10 18 16 82 27 15 3 37 9 50 14 19 7 24 5 26 -10 3 -15 12 -19 43 -19z
m-2819 -117 c-9 -7 -23 -13 -31 -12 -11 0 -12 2 -3 6 6 2 12 16 12 31 0 25 0
25 19 6 17 -17 18 -20 3 -31z m138 27 c0 -5 -18 -10 -39 -10 -22 0 -41 -5 -44
-12 -2 -7 -8 -10 -12 -6 -4 4 -1 14 6 22 15 17 89 22 89 6z m-470 -196 c0 -11
-5 -14 -16 -10 -9 3 -23 6 -32 7 -14 0 -13 2 3 9 31 13 45 11 45 -6z m408
-199 c2 -26 -2 -45 -8 -45 -5 0 -10 20 -10 45 0 58 14 58 18 0z m90 38 c-13
-3 -16 -11 -11 -33 7 -38 -2 -61 -22 -54 -34 13 -10 95 28 93 16 -1 17 -3 5
-6z m-168 -254 c0 -5 -10 -9 -21 -9 -18 0 -19 2 -9 15 12 15 30 12 30 -6z m87
-35 c-3 -3 -12 -4 -19 -1 -8 3 -5 6 6 6 11 1 17 -2 13 -5z m101 -1 c-10 -2
-26 -2 -35 0 -10 3 -2 5 17 5 19 0 27 -2 18 -5z m-2251 -1399 c-3 -3 -12 -4
-19 -1 -8 3 -5 6 6 6 11 1 17 -2 13 -5z"/>
<path d="M10720 5320 c0 -5 5 -10 10 -10 6 0 10 5 10 10 0 6 -4 10 -10 10 -5
0 -10 -4 -10 -10z"/>
<path d="M5995 6883 c-140 -3 -820 -25 -1280 -42 -116 -4 -209 -12 -221 -19
-14 -7 -32 -8 -51 -3 -17 5 -49 5 -72 1 -22 -4 -51 -6 -63 -5 -13 1 -15 0 -5
-2 9 -2 17 -8 17 -13 0 -11 59 -70 71 -70 5 0 9 7 9 15 0 10 10 15 33 15 17 0
42 3 55 6 19 6 22 3 22 -24 0 -16 -6 -43 -12 -58 l-13 -29 -120 -3 c-126 -3
-137 -7 -133 -52 l3 -24 175 -4 c96 -2 204 -3 240 -3 61 1 66 0 77 -25 9 -20
10 -31 2 -41 -9 -10 -3 -13 31 -13 37 0 41 2 30 15 -10 12 -10 19 -1 28 9 9
14 9 20 -2 5 -8 7 -20 4 -28 -3 -7 0 -13 6 -13 6 0 11 -9 11 -20 0 -12 11 -32
25 -46 14 -14 25 -28 25 -32 0 -4 10 -14 23 -22 15 -10 56 -15 137 -17 126 -2
155 -7 177 -28 10 -11 40 -15 106 -16 130 -1 204 -7 224 -18 15 -8 166 -8 565
-2 l78 1 26 39 26 40 91 2 c51 1 109 1 129 1 36 0 38 2 58 54 21 57 26 129 10
154 -5 9 -22 13 -45 12 -21 -2 -44 3 -51 9 -9 7 -41 11 -79 10 -76 -2 -136 14
-171 46 -20 18 -23 27 -14 42 13 25 13 31 0 31 -5 0 -10 -6 -10 -14 0 -20 -52
-32 -135 -31 -64 0 -70 2 -73 21 -4 26 40 64 74 64 13 0 28 -9 35 -21 l11 -21
12 23 c15 32 50 36 69 9 14 -20 15 -19 26 23 6 24 17 50 26 57 21 17 19 28 -7
35 -35 10 -43 10 -203 8z m485 -472 c0 -12 -39 -21 -45 -11 -3 5 3 11 12 13
29 8 33 7 33 -2z"/>
<path d="M4306 6751 c-4 -7 -5 -15 -2 -18 9 -9 19 4 14 18 -4 11 -6 11 -12 0z"/>
<path d="M12913 6193 c-18 -21 -33 -45 -33 -55 0 -9 24 -73 53 -140 30 -68 78
-188 107 -268 29 -80 65 -170 80 -200 15 -30 35 -77 43 -105 18 -54 61 -243
77 -334 5 -31 29 -155 53 -276 102 -502 156 -936 145 -1153 -5 -84 -8 -98 -28
-114 -27 -22 -21 -44 16 -58 22 -9 33 -7 60 12 l34 23 0 242 c0 202 -4 276
-25 439 -30 231 -72 481 -115 684 -17 80 -40 195 -50 255 -39 231 -61 312
-113 425 -16 35 -46 111 -67 170 -51 145 -191 490 -199 490 -3 -1 -21 -17 -38
-37z"/>
<path d="M13847 5802 c-15 -15 -27 -36 -27 -45 0 -10 28 -54 63 -100 82 -108
108 -160 152 -303 70 -226 85 -290 110 -459 14 -93 39 -242 55 -330 16 -88 32
-185 35 -215 3 -30 10 -98 15 -150 5 -52 10 -226 10 -387 l0 -292 -32 -22
c-67 -45 -69 -71 -10 -115 l35 -27 36 19 c19 10 41 30 47 43 9 18 12 133 10
435 -3 435 -6 478 -65 801 -11 61 -27 164 -36 230 -21 169 -41 267 -70 360
-14 44 -42 134 -61 199 -19 65 -43 135 -53 155 -29 56 -161 231 -175 231 -7 0
-24 -13 -39 -28z"/>
<path d="M5490 5674 c0 -8 5 -12 10 -9 6 3 10 10 10 16 0 5 -4 9 -10 9 -5 0
-10 -7 -10 -16z"/>
<path d="M5264 5658 c-4 -7 -3 -8 4 -4 7 4 12 2 12 -3 0 -6 7 -11 15 -11 20 0
19 16 -1 24 -21 8 -22 8 -30 -6z"/>
<path d="M5346 5623 c-4 -5 -101 -10 -215 -13 -222 -6 -241 -10 -241 -56 0
-13 -4 -24 -9 -24 -6 0 -9 -8 -9 -17 1 -10 -2 -28 -6 -40 -5 -14 -3 -23 3 -23
6 0 11 -6 11 -14 0 -30 222 -33 258 -4 10 9 14 6 19 -10 3 -12 9 -22 14 -22 5
0 6 6 4 13 -2 6 8 30 23 52 26 38 31 40 92 46 46 5 67 12 77 25 11 15 27 19
81 20 37 0 78 6 92 12 l25 11 -22 7 c-13 3 -23 13 -23 20 0 8 -7 14 -15 14 -8
0 -15 -5 -15 -11 0 -15 -120 -5 -130 10 -3 6 -10 8 -14 4z m-66 -83 c0 -5 -7
-10 -15 -10 -8 0 -15 5 -15 10 0 6 7 10 15 10 8 0 15 -4 15 -10z"/>
<path d="M5710 5331 c-118 -5 -139 -9 -162 -27 l-27 -21 76 -7 c42 -3 123 -6
181 -6 77 0 110 -4 121 -14 12 -11 51 -15 151 -17 l135 -2 0 47 0 46 -170 3
c-93 2 -231 1 -305 -2z"/>
<path d="M3467 4944 c-4 -42 -7 -109 -7 -148 0 -39 -7 -103 -15 -141 -17 -83
-19 -145 -4 -145 6 0 26 15 45 34 32 32 44 73 27 90 -5 4 -9 12 -9 17 -1 5 -3
12 -5 17 -1 4 -3 77 -3 162 -1 93 -5 162 -12 173 -9 15 -12 4 -17 -59z"/>
<path d="M12593 3036 c-99 -20 -159 -46 -78 -32 22 3 87 11 144 16 70 6 110
15 120 25 14 13 10 15 -34 14 -28 -1 -96 -11 -152 -23z"/>
<path d="M2858 2783 c7 -3 16 -2 19 1 4 3 -2 6 -13 5 -11 0 -14 -3 -6 -6z"/>
<path d="M2903 2763 c9 -14 56 -23 63 -12 3 5 -1 9 -8 9 -7 0 -24 3 -37 7 -16
4 -22 2 -18 -4z"/>
<path d="M3008 2728 c5 -5 16 -8 23 -6 8 3 3 7 -10 11 -17 4 -21 3 -13 -5z"/>
</g>
</svg>
